<svg width="21" height="21" viewBox="0 0 21 20" fill="none" xmlns="http://www.w3.org/2000/svg">
<g clip-path="url(#clip0_1411_2443)">
<mask id="mask0_1411_2443" style="mask-type:luminance" maskUnits="userSpaceOnUse" x="0" y="0" width="21" height="20">
<path d="M20.6001 0H0.600098V20H20.6001V0Z" fill="white"/>
</mask>
<g mask="url(#mask0_1411_2443)">
<path d="M20.6001 10.0604C20.5998 8.14937 20.0521 6.27845 19.0216 4.6691C17.9911 3.05975 16.521 1.77936 14.7855 0.979538C13.0499 0.179711 11.1215 -0.106069 9.2286 0.156032C7.33562 0.418132 5.55741 1.21714 4.10446 2.45845C2.65151 3.69977 1.58467 5.33141 1.03023 7.16021C0.475788 8.98899 0.45697 10.9384 0.976005 12.7776C1.49504 14.6167 2.53019 16.2687 3.95891 17.5378C5.38762 18.8069 7.15006 19.6401 9.0376 19.9387V12.9512H6.49843V10.0604H9.0376V7.85704C9.0376 5.35121 10.5309 3.9662 12.8143 3.9662C13.5643 3.97696 14.3128 4.04214 15.0534 4.1612V6.62287H13.7918C13.4119 6.57245 13.0277 6.67494 12.7234 6.90778C12.4192 7.14062 12.2198 7.48476 12.1693 7.86454C12.1549 7.97089 12.1528 8.07851 12.1626 8.18537V10.0604H14.9334L14.4901 12.9512H12.1568V19.9387C14.5101 19.5678 16.6538 18.369 18.2017 16.558C19.7497 14.7469 20.6002 12.4427 20.6001 10.0604Z" fill="white"/>
</g>
</g>
<defs>
<clipPath id="clip0_1411_2443">
<rect width="20" height="20" fill="white" transform="translate(0.600098)"/>
</clipPath>
</defs>
</svg>
