<svg width="195" height="95" viewBox="0 0 196 37" fill="none" xmlns="http://www.w3.org/2000/svg">
<path d="M17.5538 36.0017C14.0837 36.005 10.6907 34.9809 7.8041 33.0589C4.91751 31.1369 2.66715 28.4035 1.33783 25.2046C0.00851214 22.0057 -0.340002 18.4851 0.336399 15.0885C1.0128 11.6918 2.68371 8.57177 5.13764 6.12324C7.59157 3.6747 10.7182 2.00775 14.1218 1.33336C17.5255 0.658969 21.053 1.00746 24.2581 2.33473C27.4632 3.66199 30.2017 5.90837 32.127 8.78953C34.0523 11.6707 35.0778 15.0571 35.0738 18.5202C35.064 23.1542 33.2149 27.5955 29.9313 30.8719C26.6476 34.1482 22.197 35.9928 17.5538 36.0017ZM17.5538 2.90512C14.4625 2.90179 11.4397 3.81335 8.86759 5.52454C6.29546 7.23572 4.28954 9.66968 3.10349 12.5186C1.91744 15.3675 1.60453 18.5035 2.20433 21.5299C2.80412 24.5563 4.28969 27.3372 6.47317 29.5211C8.65665 31.7049 11.44 33.1935 14.4712 33.7986C17.5024 34.4037 20.6453 34.0982 23.5025 32.9207C26.3597 31.7432 28.8029 29.7465 30.5231 27.1833C32.2432 24.62 33.1632 21.6052 33.1665 18.5202C33.1665 14.3847 31.5227 10.418 28.5957 7.49056C25.6687 4.56313 21.6976 2.91404 17.5538 2.90512ZM6.86622 18.3349C4.26016 22.9874 7.28144 26.4979 11.015 26.4979H17.1217L14.1139 17.7386C14.1139 17.7386 11.6294 16.8829 11.6294 15.1513C11.6294 12.3955 13.5738 10.3168 13.5738 10.3168L19.1235 26.4979H28.0185L21.7093 8.12699H12.659C12.659 8.12699 8.86465 14.7706 6.86622 18.3349ZM61.4382 8.12699H43.054V14.0665H54.8961C55.9088 14.0665 55.9088 14.7402 55.9088 15.0771V15.5656H47.0542C44.0769 15.5656 41.1197 18.3417 41.1197 21.3131C41.1197 23.8364 42.7704 26.4979 46.1664 26.4979H66.5929V12.8536C66.5929 9.69692 63.9768 8.1371 61.445 8.1371L61.4382 8.12699ZM55.9088 20.6595H51.203C49.9169 20.6595 49.8527 18.6718 51.095 18.6718H55.9088V20.6595ZM84.2109 8.1371H68.2977V30.2509H78.992V26.4979H80.3423C80.7136 26.4676 81.6656 26.4979 82.7289 26.353C84.8827 26.0487 86.9548 25.3216 88.8255 24.2137C91.0433 22.8998 92.6772 21.3535 93.4266 19.45C94.3178 17.1861 94.0207 14.4943 92.6941 12.1765C90.6686 8.60875 87.0431 8.13373 84.2244 8.13373L84.2109 8.1371ZM82.6952 18.4899C81.0073 20.6528 78.9819 20.6561 78.9819 20.6561V15.5656H82.6952C82.6952 15.5656 84.0455 16.7347 82.6682 18.4831L82.6952 18.4899ZM160.965 15.7172C160.715 14.2012 161.923 14.0665 162.717 14.0665H165.86V8.12699H149.656C148.81 8.1556 148.008 8.50896 147.417 9.11339C146.826 9.71783 146.491 10.5267 146.483 11.3713C146.483 13.3152 147.472 14.8312 149.258 16.3506C150.912 17.7521 151.452 18.372 151.374 19.1232C151.253 20.3361 150.547 20.6494 149.227 20.6494H146.449V26.4979H163.611C165.198 26.4979 167.446 25.4569 167.446 23.4658C167.446 20.6359 161.191 17.0648 160.965 15.7172ZM134.401 11.5027C133.355 13.3657 132.011 12.9412 132.011 12.9412V8.12699H121.391V26.4979H132.011V21.6095C132.011 21.6095 132.96 21.2491 134.533 22.883C136.106 24.5169 137.747 26.4979 139.515 26.4979H144.758V20.6494C144.758 20.6494 142.273 21.057 140.727 19.6387C139.482 18.4899 139.353 17.4388 139.353 17.4388C139.353 17.4388 140.103 15.8116 140.923 15.0468C142.462 13.6083 144.758 14.0732 144.758 14.0732V8.12699H138.206C137.314 8.12699 135.566 9.43414 134.401 11.4959V11.5027ZM115.16 18.655C118.981 18.5067 120.223 15.5589 120.395 13.8306C120.615 11.7722 119.2 8.40324 115.16 8.10341H103.392C101.112 8.15726 98.9453 9.10281 97.3578 10.7363C95.7703 12.3697 94.8895 14.5602 94.9052 16.8357C94.9052 18.5 94.9862 20.0463 95.4655 21.3838C96.5627 24.463 99.1349 26.5012 103.135 26.5012H119.501V20.6494H107.146C105.178 20.6494 105.603 18.6617 105.603 18.6617L115.16 18.655ZM105.525 15.222C105.508 14.0024 106.953 13.0019 108.752 12.9816C110.552 12.9614 112.023 13.9351 112.04 15.1546C112.043 15.2935 112.025 15.432 111.986 15.5656H105.572C105.543 15.4556 105.526 15.3426 105.522 15.2287L105.525 15.222Z" fill="#000000"/>
</svg>
